<svg width="163" height="44" viewBox="0 0 163 44" fill="none" xmlns="http://www.w3.org/2000/svg">
<path fill-rule="evenodd" clip-rule="evenodd" d="M48.5533 19.8109C48.5533 28.7171 42.3633 36.2547 33.8663 38.7311C31.9248 39.2959 29.869 39.6 27.7219 39.6C18.06 39.6 9.95134 33.3439 7.59868 24.8722C7.23322 23.5471 7.0048 22.1786 6.93628 20.7666V18.8333C6.95912 18.3989 7.0048 17.9645 7.05049 17.53C7.16469 16.5308 7.37027 15.5315 7.64436 14.5758C10.0427 6.19089 18.1286 0 27.7448 0C34.1861 0 39.9421 2.78047 43.7794 7.1684C45.5154 9.14515 46.8402 11.4694 47.6625 13.9892C48.2335 15.8139 48.5533 17.769 48.5533 19.8109Z" fill="black"/>
<path d="M27.1271 23.7864C26.5332 23.7864 25.985 23.4388 25.8023 22.874C25.5739 22.1789 25.9622 21.4403 26.6931 21.2231L35.5556 18.5078L34.1622 9.42783L18.7671 14.5109C18.0362 14.7498 17.2596 14.3805 17.0083 13.6854C16.7571 12.9903 17.1454 12.2517 17.8763 12.0128L33.9338 6.71252C34.5734 6.4953 35.2815 6.56047 35.8296 6.8863C36.355 7.19042 36.7205 7.71176 36.8118 8.29826L38.365 18.3992C38.5249 19.4853 37.794 20.5932 36.6519 20.9624L27.5611 23.7429C27.4012 23.7646 27.2641 23.7864 27.1271 23.7864Z" fill="white"/>
<path d="M35.578 23.9378C35.3724 23.2426 34.5958 22.8299 33.8649 23.0471C33.6821 23.0906 29.6164 24.2202 27.8804 24.7849C25.1851 25.6538 24.0888 24.8067 23.9289 24.6763L16.3455 15.4226C14.7923 13.3155 12.4168 13.2286 11.2519 13.4893L7.64295 14.5754C7.36885 15.5529 7.16328 16.5304 7.04907 17.5296L11.9371 16.0308C12.1884 15.9874 13.3076 15.857 14.0842 16.9214L21.7818 26.3272C22.6497 27.3699 24.1116 27.7826 25.6648 27.7826C26.7155 27.7826 27.8119 27.5871 28.7712 27.2613C30.4387 26.74 34.5958 25.5669 34.6415 25.5669C35.3724 25.3714 35.8064 24.6546 35.578 23.9378Z" fill="white"/>
<path d="M28.5414 31.5194C28.5414 32.6924 27.5363 33.6482 26.3029 33.6482C25.0695 33.6482 24.0645 32.6924 24.0645 31.5194C24.0645 30.3464 25.0695 29.3906 26.3029 29.3906C27.5363 29.3906 28.5414 30.3464 28.5414 31.5194Z" fill="white"/>
<path d="M38.3856 29.1308C38.3856 30.3038 37.3806 31.2595 36.1471 31.2595C34.9137 31.2595 33.9087 30.3038 33.9087 29.1308C33.9087 27.9577 34.9137 27.002 36.1471 27.002C37.3806 27.002 38.3856 27.9577 38.3856 29.1308Z" fill="white"/>
<path d="M64.8623 15.6748L61.6253 24.8008H58.8433L55.6063 15.6748H57.9723L60.2343 22.5648L62.5093 15.6748H64.8623ZM69.0934 24.9048C68.3827 24.9048 67.7414 24.7531 67.1694 24.4498C66.606 24.1464 66.1597 23.7131 65.8304 23.1498C65.5097 22.5864 65.3494 21.9278 65.3494 21.1738C65.3494 20.4284 65.514 19.7741 65.8434 19.2108C66.1727 18.6388 66.6234 18.2011 67.1954 17.8978C67.7674 17.5944 68.4087 17.4428 69.1194 17.4428C69.83 17.4428 70.4714 17.5944 71.0434 17.8978C71.6154 18.2011 72.066 18.6388 72.3954 19.2108C72.7247 19.7741 72.8894 20.4284 72.8894 21.1738C72.8894 21.9191 72.7204 22.5778 72.3824 23.1498C72.053 23.7131 71.598 24.1464 71.0174 24.4498C70.4454 24.7531 69.804 24.9048 69.0934 24.9048ZM69.0934 22.9808C69.518 22.9808 69.8777 22.8248 70.1724 22.5128C70.4757 22.2008 70.6274 21.7544 70.6274 21.1738C70.6274 20.5931 70.48 20.1468 70.1854 19.8348C69.8994 19.5228 69.544 19.3668 69.1194 19.3668C68.686 19.3668 68.3264 19.5228 68.0404 19.8348C67.7544 20.1381 67.6114 20.5844 67.6114 21.1738C67.6114 21.7544 67.75 22.2008 68.0274 22.5128C68.3134 22.8248 68.6687 22.9808 69.0934 22.9808ZM76.8247 17.4428C77.336 17.4428 77.7824 17.5468 78.1637 17.7548C78.5537 17.9628 78.8527 18.2358 79.0607 18.5738V17.5468H81.2837V24.7878C81.2837 25.4551 81.1494 26.0574 80.8807 26.5948C80.6207 27.1408 80.2177 27.5741 79.6717 27.8948C79.1344 28.2154 78.4627 28.3758 77.6567 28.3758C76.582 28.3758 75.711 28.1201 75.0437 27.6088C74.3764 27.1061 73.995 26.4214 73.8997 25.5548H76.0967C76.166 25.8321 76.3307 26.0488 76.5907 26.2048C76.8507 26.3694 77.1714 26.4518 77.5527 26.4518C78.012 26.4518 78.376 26.3174 78.6447 26.0488C78.922 25.7888 79.0607 25.3684 79.0607 24.7878V23.7608C78.844 24.0988 78.545 24.3761 78.1637 24.5928C77.7824 24.8008 77.336 24.9048 76.8247 24.9048C76.2267 24.9048 75.685 24.7531 75.1997 24.4498C74.7144 24.1378 74.3287 23.7001 74.0427 23.1368C73.7654 22.5648 73.6267 21.9061 73.6267 21.1608C73.6267 20.4154 73.7654 19.7611 74.0427 19.1978C74.3287 18.6344 74.7144 18.2011 75.1997 17.8978C75.685 17.5944 76.2267 17.4428 76.8247 17.4428ZM79.0607 21.1738C79.0607 20.6191 78.9047 20.1814 78.5927 19.8608C78.2894 19.5401 77.9167 19.3798 77.4747 19.3798C77.0327 19.3798 76.6557 19.5401 76.3437 19.8608C76.0404 20.1728 75.8887 20.6061 75.8887 21.1608C75.8887 21.7154 76.0404 22.1574 76.3437 22.4868C76.6557 22.8074 77.0327 22.9678 77.4747 22.9678C77.9167 22.9678 78.2894 22.8074 78.5927 22.4868C78.9047 22.1661 79.0607 21.7284 79.0607 21.1738ZM90.0549 17.5468V24.8008H87.8319V23.8128C87.6066 24.1334 87.2989 24.3934 86.9089 24.5928C86.5276 24.7834 86.1029 24.8788 85.6349 24.8788C85.0803 24.8788 84.5906 24.7574 84.1659 24.5148C83.7413 24.2634 83.4119 23.9038 83.1779 23.4358C82.9439 22.9678 82.8269 22.4174 82.8269 21.7848V17.5468H85.0369V21.4858C85.0369 21.9711 85.1626 22.3481 85.4139 22.6168C85.6653 22.8854 86.0033 23.0198 86.4279 23.0198C86.8613 23.0198 87.2036 22.8854 87.4549 22.6168C87.7063 22.3481 87.8319 21.9711 87.8319 21.4858V17.5468H90.0549ZM98.4897 21.0568C98.4897 21.2648 98.4767 21.4814 98.4507 21.7068H93.4197C93.4544 22.1574 93.5974 22.5041 93.8487 22.7468C94.1087 22.9808 94.425 23.0978 94.7977 23.0978C95.3524 23.0978 95.738 22.8638 95.9547 22.3958H98.3207C98.1994 22.8724 97.9784 23.3014 97.6577 23.6828C97.3457 24.0641 96.9514 24.3631 96.4747 24.5798C95.998 24.7964 95.465 24.9048 94.8757 24.9048C94.165 24.9048 93.5324 24.7531 92.9777 24.4498C92.423 24.1464 91.9897 23.7131 91.6777 23.1498C91.3657 22.5864 91.2097 21.9278 91.2097 21.1738C91.2097 20.4198 91.3614 19.7611 91.6647 19.1978C91.9767 18.6344 92.41 18.2011 92.9647 17.8978C93.5194 17.5944 94.1564 17.4428 94.8757 17.4428C95.5777 17.4428 96.2017 17.5901 96.7477 17.8848C97.2937 18.1794 97.7184 18.5998 98.0217 19.1458C98.3337 19.6918 98.4897 20.3288 98.4897 21.0568ZM96.2147 20.4718C96.2147 20.0904 96.0847 19.7871 95.8247 19.5618C95.5647 19.3364 95.2397 19.2238 94.8497 19.2238C94.477 19.2238 94.1607 19.3321 93.9007 19.5488C93.6494 19.7654 93.4934 20.0731 93.4327 20.4718H96.2147ZM101.885 23.0848H104.797V24.8008H99.6624V15.6748H101.885V23.0848ZM113.021 17.5468V24.8008H110.798V23.8128C110.572 24.1334 110.265 24.3934 109.875 24.5928C109.493 24.7834 109.069 24.8788 108.601 24.8788C108.046 24.8788 107.556 24.7574 107.132 24.5148C106.707 24.2634 106.378 23.9038 106.144 23.4358C105.91 22.9678 105.793 22.4174 105.793 21.7848V17.5468H108.003V21.4858C108.003 21.9711 108.128 22.3481 108.38 22.6168C108.631 22.8854 108.969 23.0198 109.394 23.0198C109.827 23.0198 110.169 22.8854 110.421 22.6168C110.672 22.3481 110.798 21.9711 110.798 21.4858V17.5468H113.021ZM118.908 24.8008L117.517 22.7858L116.347 24.8008H113.942L116.334 21.0958L113.877 17.5468H116.373L117.764 19.5488L118.934 17.5468H121.339L118.908 21.1998L121.404 24.8008H118.908ZM129.098 21.0568C129.098 21.2648 129.085 21.4814 129.059 21.7068H124.028C124.063 22.1574 124.206 22.5041 124.457 22.7468C124.717 22.9808 125.033 23.0978 125.406 23.0978C125.961 23.0978 126.346 22.8638 126.563 22.3958H128.929C128.808 22.8724 128.587 23.3014 128.266 23.6828C127.954 24.0641 127.56 24.3631 127.083 24.5798C126.606 24.7964 126.073 24.9048 125.484 24.9048C124.773 24.9048 124.141 24.7531 123.586 24.4498C123.031 24.1464 122.598 23.7131 122.286 23.1498C121.974 22.5864 121.818 21.9278 121.818 21.1738C121.818 20.4198 121.97 19.7611 122.273 19.1978C122.585 18.6344 123.018 18.2011 123.573 17.8978C124.128 17.5944 124.765 17.4428 125.484 17.4428C126.186 17.4428 126.81 17.5901 127.356 17.8848C127.902 18.1794 128.327 18.5998 128.63 19.1458C128.942 19.6918 129.098 20.3288 129.098 21.0568ZM126.823 20.4718C126.823 20.0904 126.693 19.7871 126.433 19.5618C126.173 19.3364 125.848 19.2238 125.458 19.2238C125.085 19.2238 124.769 19.3321 124.509 19.5488C124.258 19.7654 124.102 20.0731 124.041 20.4718H126.823Z" fill="black"/>
</svg>
